<?xml version="1.0" encoding="UTF-8" standalone="no"?>
<!-- Created with Inkscape (http://www.inkscape.org/) -->

<svg
   xmlns:dc="http://purl.org/dc/elements/1.1/"
   xmlns:cc="http://creativecommons.org/ns#"
   xmlns:rdf="http://www.w3.org/1999/02/22-rdf-syntax-ns#"
   xmlns:svg="http://www.w3.org/2000/svg"
   xmlns="http://www.w3.org/2000/svg"
   version="1.1"
   width="100"
   height="100"
   id="svg2">
  <defs
     id="defs4" />
  <metadata
     id="metadata7">
    <rdf:RDF>
      <cc:Work
         rdf:about="">
        <dc:format>image/svg+xml</dc:format>
        <dc:type
           rdf:resource="http://purl.org/dc/dcmitype/StillImage" />
        <dc:title></dc:title>
      </cc:Work>
    </rdf:RDF>
  </metadata>
  <g
     transform="translate(0,-952.36218)"
     id="layer1">
    <path
       d="m 541,593.36218 a 182,182 0 1 1 -364,0 182,182 0 1 1 364,0 z"
       transform="matrix(0.25385014,0,0,0.25385014,-41.129792,851.67598)"
       id="path2985"
       style="fill:none;stroke:#f8981c;stroke-width:22.10000038;stroke-linecap:butt;stroke-linejoin:miter;stroke-miterlimit:4;stroke-opacity:1;stroke-dasharray:none" />
    <g
       id="text3757"
       style="font-size:52.16877747px;font-style:normal;font-variant:normal;font-weight:normal;font-stretch:normal;text-align:start;line-height:125%;letter-spacing:0px;word-spacing:0px;writing-mode:lr-tb;text-anchor:start;fill:#f8981c;fill-opacity:1;stroke:none;font-family:Sawasdee;-inkscape-font-specification:Sawasdee">
      <path
         d="m 34.011972,990.62565 -2.165208,0.73871 c -0.594393,-1.81704 -1.579349,-3.19258 -2.954872,-4.12663 -1.35858,-0.93397 -2.844506,-1.40098 -4.457781,-1.40101 -1.952946,3e-5 -3.549255,0.62837 -4.788931,1.885 -1.222715,1.2567 -1.834067,2.79357 -1.834059,4.61062 -8e-6,0.93404 0.212267,1.78314 0.636826,2.5473 0.424541,0.76422 0.993438,1.41803 1.706694,1.96143 0.713233,0.54345 1.528369,1.05291 2.445411,1.52838 0.933997,0.45854 1.910463,0.90007 2.929399,1.3246 1.035886,0.42455 2.063298,0.87455 3.082237,1.35005 1.035884,0.4586 2.012349,0.9935 2.9294,1.6048 0.933988,0.6114 1.757615,1.2907 2.470884,2.0379 0.71322,0.7472 1.282117,1.6642 1.706693,2.751 0.424524,1.0869 0.636799,2.2926 0.636826,3.6172 -2.7e-5,2.2077 -0.568924,4.1861 -1.706693,5.9352 -1.13782,1.7492 -2.615254,3.0823 -4.432308,3.9993 -1.817096,0.917 -3.778518,1.3755 -5.884272,1.3755 -1.375557,0 -2.691663,-0.2207 -3.94832,-0.6623 -1.25668,-0.4415 -2.428438,-1.0953 -3.515279,-1.9614 -1.086856,-0.883 -2.012375,-2.0548 -2.776561,-3.5153 -0.764195,-1.4604 -1.265164,-3.1331 -1.502909,-5.0181 l 2.2671,-0.2802 c 0.424545,3.0567 1.511393,5.3408 3.260549,6.8522 1.76612,1.4944 3.837925,2.2416 6.21542,2.2416 1.681204,0 3.25204,-0.3481 4.712512,-1.0444 1.460433,-0.7132 2.657664,-1.7661 3.591698,-3.1586 0.950969,-1.4095 1.426465,-3.0228 1.42649,-4.8399 -2.5e-5,-1.1378 -0.2123,-2.1652 -0.636826,-3.0822 -0.424574,-0.9171 -0.993471,-1.6897 -1.706693,-2.3181 -0.713267,-0.6283 -1.536894,-1.2057 -2.470885,-1.7321 -0.917048,-0.5265 -1.893513,-1.002 -2.929399,-1.4265 -1.018937,-0.4416 -2.046349,-0.8831 -3.082237,-1.3246 -1.018934,-0.4415 -1.9954,-0.934 -2.929399,-1.47747 -0.91704,-0.5434 -1.732176,-1.13777 -2.445412,-1.78312 -0.713252,-0.64529 -1.28215,-1.43495 -1.706693,-2.36899 -0.424557,-0.95096 -0.636832,-2.01234 -0.636826,-3.18413 -6e-6,-2.44538 0.832112,-4.52567 2.496357,-6.24089 1.664229,-1.73213 3.803961,-2.59821 6.419206,-2.59825 2.037825,4e-5 3.948301,0.63686 5.731433,1.91048 1.800072,1.2567 3.082213,3.01434 3.846428,5.27292"
         id="path2994" />
      <path
         d="m 36.94063,983.90076 2.2671,0 11.182663,31.45924 10.953406,-31.91775 10.927932,31.91775 11.080771,-31.45924 2.445411,0 L 72.271731,1022.365 61.394745,990.62565 50.492285,1022.365 36.94063,983.90076"
         id="path2996" />
    </g>
  </g>
</svg>
